<?xml version="1.0" encoding="utf-8"?>
<!-- Generator: Adobe Illustrator 25.0.0, SVG Export Plug-In . SVG Version: 6.00 Build 0)  -->
<svg version="1.1" id="Layer_1" xmlns="http://www.w3.org/2000/svg" xmlns:xlink="http://www.w3.org/1999/xlink" x="0px" y="0px"
	 viewBox="0 0 2219.4 554.3" style="enable-background:new 0 0 2219.4 554.3;" xml:space="preserve">
<style type="text/css">
	.st0{fill:#575757;}
	.st1{fill:#BCBCBC;}
	.st2{fill:#FFFFFF;}
</style>
<g id="surface1">
	<path class="st0" d="M706.3,496.1c4.6-10,5-14.2,5-40.8c-11.9,1.9-27.9,4.2-47.6,8.5c-33.7,7.3-39.5,20-39.5,32.7
		c0,14.6,11.5,26.9,34.1,26.9C679.4,523.4,697.5,514.9,706.3,496.1 M748,546.2l-31.7,0.1c0,0-2.7-12.8-3.6-26.8
		c-9.2,9.6-26.3,29.4-60.9,29.4c-35.3,0-61.5-20.9-61.5-51.7c0-9.6,2.7-19.2,8.1-27.3c10.4-15.4,29.6-27.7,83.8-31.9l28.8-2.3v-4.6
		c0-18.8,0-50.3-40.6-50.3c-25.5,0-34.2,12.4-37.1,23.6l-28.1-11.8c0.5-1,1-2,1.5-3c10.8-20,32-32.3,62.6-32.3
		c16.8,0,38.7,4.2,52.9,15.4c20.2,15.4,19.8,45.6,19.8,45.6l1.2,93.2C743.1,511.5,744.1,538.6,748,546.2 M1762.4,496.1
		c4.6-10,5-14.2,5-40.8c-11.8,1.9-27.9,4.2-47.6,8.5c-33.8,7.3-39.5,20-39.5,32.7c0,14.6,11.5,26.9,34.2,26.9
		C1735.5,523.4,1753.5,514.9,1762.4,496.1 M1804.1,546.2l-31.7,0.1c0,0-2.8-12.8-3.7-26.8c-9.2,9.6-26.3,29.4-60.8,29.4
		c-35.3,0-61.6-20.9-61.6-51.7c0-9.6,2.7-19.2,8.1-27.3c10.4-15.4,29.7-27.7,83.8-31.9l28.8-2.3v-4.6c0-18.8,0-50.3-40.6-50.3
		c-25.5,0-34.2,12.4-37.1,23.6l-28.1-11.8c0.5-1,1-2,1.5-3c10.8-20,32-32.3,62.6-32.3c16.8,0,38.7,4.2,52.9,15.4
		c20.2,15.4,19.8,45.6,19.8,45.6l1.2,93.2C1799.1,511.5,1800.2,538.6,1804.1,546.2 M1457.4,511.5c-10.4,17.7-30.5,38-70,38
		c-53.7,0-84.5-36.5-84.5-97.6c0-68.3,45-94.4,83.4-94.4c33.4,0,65.3,18.4,76.1,64.1c3.5,15.3,3.5,29.2,3.5,36.9h-130.6
		c-0.8,30.4,12,68.8,54.9,68.1c17.5-0.3,29.8-8.3,37.7-20.7L1457.4,511.5z M1335.9,436.5h96.4c-2.7-47.6-30.1-55.6-48.4-55.6
		C1357.8,380.9,1339.3,400,1335.9,436.5 M1110.6,511.5c-10.4,17.7-30.5,38-70,38c-53.7,0-84.5-36.5-84.5-97.6
		c0-68.3,45.1-94.4,83.4-94.4c33.4,0,65.3,18.4,76.1,64.1c3.5,15.3,3.5,29.2,3.5,36.9H988.3c-0.8,30.4,12,68.8,54.9,68.1
		c17.5-0.3,29.9-8.3,37.7-20.7L1110.6,511.5z M989,436.5h96.4c-2.7-47.6-30.1-55.6-48.4-55.6C1011,380.9,992.5,400,989,436.5
		 M1637.3,513.8c-11.4,17.9-32.1,35.9-69.3,35.9c-64.2,0-88.5-49.5-88.5-94c0-51.4,28-98,85.9-98c22.7,0,54.5,6.8,72,36.2
		l-28.6,11.9c-5.4-11.9-17-25.7-42.4-25.7c-50.1,0-53.1,57.1-53.1,73.3c0,59.9,34.4,72.9,55,72.9c23.6,0,35.5-11.3,41.9-23.7
		L1637.3,513.8z M1166.9,365.4v26.4c17-29.7,45.9-32.4,56.7-32.4c23.1,0,50.9,11.6,59.8,41.6c3.1,10.7,3.1,21.9,3.1,37.2V546H1256
		V443.2c0-18.4,0-23.8-1.9-29.9c-5.4-17.3-22.4-24.9-38.9-24.9c-13.5,0-25.1,4.2-34.7,13.8c-13.5,13.4-13.5,27.2-13.5,40.7V546
		h-30.5V365.4H1166.9z M941.8,307v29.8L806.5,517.3h138.7V546H769.5V515l136-178.6H769.6V307H941.8z M526.9,364.2v32.6
		c17.3-34.3,49.9-35.1,62.2-35.5v31.5c-30,0.2-44.6,6.3-54.5,22.5c-8.1,13.1-7.7,31.6-7.7,47.2V546h-30.5V364.2H526.9z M435.8,363.7
		h33v25.4h-33v103.4c0,21.5,0,30.7,13,30.7c5.8,0,13.8-2.3,20-4.2v25.2c-5.4,0.8-18,3.1-29.6,3.1c-35.3,0-35.3-17.2-35-40.9V389.1
		h-28.8v-25.4h28.8v-43.4l31.5-13.1V363.7z M284.2,463.5c-31.1-6.7-63.2-14.1-63.2-51.6c0-32.9,27.9-53.7,69.9-53.7
		c27.2,0,53.2,10.1,66.1,34.9l-28.3,11.8c-2.3-6.6-16.9-23.2-41.3-23.2c-23.9,0-35.9,14.2-35.9,26.4c0,17.2,22.8,24.4,42.2,28.3
		c40.2,8.1,75.1,18.4,75.1,56.3c0,29.5-26.1,57.1-76.1,57.1c-36.8,0-62.9-12.3-75.5-38l32.3-5.6c8.1,14.1,22.7,20.2,44.5,20.2
		c27,0,42.9-10.3,42.9-29.8C336.9,475.8,311,469.3,284.2,463.5 M177.8,546h33.6l-87-239.1H91.1L0,546h33.9l26.8-73.3h91.1L177.8,546
		z M70.8,445.9l36.6-99.3l34.9,99.3H70.8z"/>
	<path class="st1" d="M1816.3,305.2l65.9,34.4l65.6,35.7l48.8,27.4c-52,28.8-176.4,143.1-43,151.6c37.2-1.7,176.6-28.5,198.4-55.4
		c3.8-5.4,4-11.1,0.8-16.9l-3.3-4.5l-3.8-3.7l-3.6-2.8l-29.8-18.2l-36.7-21.7c159.7-102.1,221.8-163.3-1.5-226.8
		c-4-37.1,14.5-261.2-88.2-190.7c-64.7,54-159.4,168.6-197.3,241.6c-14.2,28.9,2.3,34.4,24.9,48.5l-0.2-0.1l0.3,0.1L1816.3,305.2z"
		/>
	<path class="st2" d="M1828.8,261.7c-3.3,3.5-10.2,11.1-8.3,16.6l2.4,4.2l2.2,2.1l15.1,10.8l59.9,35.8l109.1,62.4l73.9-47.6
		l20.1-13.7l15.3-11.4l11.8-10.4l3.2-4.3l0.8-2l0.2-2.4l-0.6-2.4l-2.8-4.3l-6.4-5.3l-25.6-14.9l-27.4-12.8
		c-10.4,219.3-137.8,22-177.5-67.3L1828.8,261.7z M1917.5,169.9l13.5,0.9l42.1,6.9l45,10.4C2007.1,42,2010.1,79.5,1917.5,169.9
		 M2061.2,440.7l-42.1,28.6l-28.8,21.5l-5.8,5.3l135.3-10.6l0.5-0.3l0.2-0.4l0.1-0.3v-0.3l-0.1-0.3l-2.9-3.6l-4.1-4l-10-7.9
		l-14.7-10L2061.2,440.7z"/>
	<path class="st2" d="M1917.5,201.8c8.3,32.1,62.5,117.3,90.4,131.6l6.2,1.9l3.7-0.1l3.8-1.7l1.7-1.8l1.5-3.3l0.5-2.4l0.5-6.8
		l-1.2-34.9l-3-44.5l-97.4-41.7l-5.6-2l-0.6,0l-0.3,0l-0.2,0.1l-0.2,0.2l-0.2,0.7L1917.5,201.8z"/>
</g>
</svg>
