<?xml version="1.0" encoding="utf-8"?>
<!-- Generator: Adobe Illustrator 25.0.0, SVG Export Plug-In . SVG Version: 6.00 Build 0)  -->
<svg version="1.1" id="Layer_1" xmlns="http://www.w3.org/2000/svg" xmlns:xlink="http://www.w3.org/1999/xlink" x="0px" y="0px"
	 viewBox="0 0 60.7 13.8" style="enable-background:new 0 0 60.7 13.8;" xml:space="preserve">
<style type="text/css">
	.st0{fill-rule:evenodd;clip-rule:evenodd;fill:#8A8A8A;}
	.st1{fill-rule:evenodd;clip-rule:evenodd;fill:#959595;}
	.st2{fill-rule:evenodd;clip-rule:evenodd;fill:#9C9C9C;}
	.st3{fill-rule:evenodd;clip-rule:evenodd;fill:#A3A3A3;}
	.st4{fill-rule:evenodd;clip-rule:evenodd;fill:#AAAAAA;}
	.st5{fill-rule:evenodd;clip-rule:evenodd;fill:#B1B1B1;}
	.st6{fill-rule:evenodd;clip-rule:evenodd;fill:#B8B8B8;}
	.st7{fill-rule:evenodd;clip-rule:evenodd;fill:#BFBFBF;}
	.st8{fill-rule:evenodd;clip-rule:evenodd;fill:#C7C7C7;}
	.st9{fill-rule:evenodd;clip-rule:evenodd;fill:#CDCDCD;}
	.st10{fill-rule:evenodd;clip-rule:evenodd;fill:#D4D4D4;}
	.st11{fill-rule:evenodd;clip-rule:evenodd;fill:#DBDBDB;}
	.st12{fill-rule:evenodd;clip-rule:evenodd;fill:#575757;}
</style>
<g>
	<path class="st0" d="M55.9,13h-0.9c-0.2,0-0.3,0.1-0.3,0.4c0,0.3,0.1,0.4,0.3,0.4h3.3c0.2,0,0.3-0.1,0.3-0.4c0-0.3-0.1-0.4-0.3-0.4
		H55.9z"/>
	<path class="st1" d="M50.9,13H50c-0.2,0-0.3,0.1-0.3,0.4c0,0.3,0.1,0.4,0.3,0.4h3.3c0.2,0,0.3-0.1,0.3-0.4c0-0.3-0.1-0.4-0.3-0.4
		H50.9z"/>
	<path class="st2" d="M46,13h-0.9c-0.2,0-0.3,0.1-0.3,0.4c0,0.3,0.1,0.4,0.3,0.4h3.3c0.2,0,0.3-0.1,0.3-0.4c0-0.3-0.1-0.4-0.3-0.4
		H46z"/>
	<path class="st3" d="M41,13h-0.9c-0.2,0-0.3,0.1-0.3,0.4c0,0.3,0.1,0.4,0.3,0.4h3.3c0.2,0,0.3-0.1,0.3-0.4c0-0.3-0.1-0.4-0.3-0.4
		H41z"/>
	<path class="st4" d="M35.9,13H35c-0.2,0-0.3,0.1-0.3,0.4c0,0.3,0.1,0.4,0.3,0.4h3.3c0.2,0,0.3-0.1,0.3-0.4c0-0.3-0.1-0.4-0.3-0.4
		H35.9z"/>
	<path class="st5" d="M31.1,13h-0.9c-0.2,0-0.3,0.1-0.3,0.4c0,0.3,0.1,0.4,0.3,0.4h3.3c0.2,0,0.3-0.1,0.3-0.4c0-0.3-0.1-0.4-0.3-0.4
		H31.1z"/>
	<path class="st6" d="M26,13h-0.9c-0.2,0-0.3,0.1-0.3,0.4c0,0.3,0.1,0.4,0.3,0.4h3.3c0.2,0,0.3-0.1,0.3-0.4c0-0.3-0.1-0.4-0.3-0.4
		H26z"/>
	<path class="st7" d="M20.9,13h-0.9c-0.2,0-0.3,0.1-0.3,0.4c0,0.3,0.1,0.4,0.3,0.4h3.3c0.2,0,0.3-0.1,0.3-0.4c0-0.3-0.1-0.4-0.3-0.4
		H20.9z"/>
	<path class="st8" d="M16.1,13h-0.9c-0.2,0-0.3,0.1-0.3,0.4c0,0.3,0.1,0.4,0.3,0.4h3.3c0.2,0,0.3-0.1,0.3-0.4c0-0.3-0.1-0.4-0.3-0.4
		H16.1z"/>
	<path class="st9" d="M11.1,13h-0.9c-0.2,0-0.3,0.1-0.3,0.4c0,0.3,0.1,0.4,0.3,0.4h3.3c0.2,0,0.3-0.1,0.3-0.4c0-0.3-0.1-0.4-0.3-0.4
		H11.1z"/>
	<path class="st10" d="M6,13H5.1c-0.2,0-0.3,0.1-0.3,0.4c0,0.3,0.1,0.4,0.3,0.4h3.3c0.2,0,0.3-0.1,0.3-0.4c0-0.3-0.1-0.4-0.3-0.4H6z
		"/>
	<path class="st11" d="M1.2,13H0.3C0.1,13,0,13.1,0,13.4c0,0.3,0.1,0.4,0.3,0.4h3.3c0.2,0,0.3-0.1,0.3-0.4C4,13.1,3.8,13,3.6,13H1.2
		z"/>
	<path class="st12" d="M0,2.7h0.9V4c0.3-0.5,0.6-0.8,1-1c0.4-0.3,0.9-0.4,1.4-0.4c0.3,0,0.7,0.1,1,0.2C4.6,2.9,4.8,3.1,5,3.3
		c0.2,0.2,0.4,0.5,0.5,1c0.3-0.6,0.7-1,1.1-1.3c0.4-0.3,0.9-0.4,1.4-0.4c0.5,0,0.9,0.1,1.3,0.4S10,3.5,10.2,4c0.2,0.4,0.3,1.1,0.3,2
		v3.9H9.5V6c0-0.8-0.1-1.3-0.2-1.6C9.3,4.1,9.1,3.9,8.8,3.7C8.6,3.5,8.3,3.4,7.9,3.4C7.5,3.4,7,3.6,6.7,3.8c-0.4,0.3-0.6,0.6-0.8,1
		C5.8,5.3,5.7,6.1,5.7,7.1v2.8H4.8V6.2c0-0.9,0-1.5-0.2-1.8C4.5,4.2,4.3,3.9,4.1,3.7C3.8,3.5,3.5,3.4,3.1,3.4C2.7,3.4,2.3,3.6,2,3.8
		c-0.4,0.2-0.6,0.6-0.8,1C1,5.3,0.9,6,0.9,6.8v3H0L0,2.7z M15.8,3.5c-0.8,0-1.4,0.3-1.9,0.9c-0.5,0.6-0.8,1.3-0.8,2.1
		c0,0.5,0.1,1,0.4,1.5c0.2,0.4,0.6,0.8,1,1c0.4,0.2,0.9,0.4,1.4,0.4c0.5,0,1-0.1,1.4-0.4c0.4-0.2,0.8-0.6,1-1
		c0.2-0.5,0.4-0.9,0.4-1.5c0-0.8-0.3-1.5-0.8-2.1C17.2,3.7,16.6,3.5,15.8,3.5z M15.8,2.5c1.1,0,2,0.4,2.7,1.2c0.7,0.7,1,1.6,1,2.6
		c0,1-0.3,1.9-1,2.6c-0.7,0.8-1.6,1.1-2.6,1.1c-1.1,0-2-0.4-2.6-1.1c-0.7-0.7-1-1.7-1-2.6c0-1,0.3-1.9,1-2.6
		C13.8,3,14.7,2.5,15.8,2.5z M24.6,3.5c-0.5,0-1,0.1-1.4,0.4c-0.4,0.3-0.8,0.6-1,1.1c-0.2,0.5-0.4,0.9-0.4,1.4c0,0.5,0.1,1,0.4,1.5
		c0.3,0.5,0.6,0.8,1,1.1c0.4,0.2,0.9,0.4,1.4,0.4c0.5,0,1-0.1,1.4-0.4c0.4-0.3,0.8-0.6,1-1c0.2-0.4,0.4-0.9,0.4-1.5
		c0-0.8-0.3-1.5-0.8-2.1C26.1,3.8,25.4,3.5,24.6,3.5z M28.2,0v10h-0.9V8.7c-0.3,0.4-0.8,0.8-1.3,1.1c-0.5,0.2-1,0.4-1.6,0.4
		c-1,0-1.9-0.4-2.6-1.1c-0.7-0.7-1.1-1.6-1.1-2.7c0-1,0.4-1.9,1.1-2.7s1.6-1.1,2.6-1.1c0.6,0,1.1,0.1,1.6,0.4
		c0.5,0.3,0.9,0.6,1.2,1.1V0L28.2,0z M36.2,5.6c-0.1-0.5-0.3-0.9-0.5-1.2c-0.2-0.3-0.6-0.6-0.9-0.7c-0.4-0.2-0.8-0.3-1.2-0.3
		c-0.7,0-1.3,0.2-1.8,0.7c-0.4,0.3-0.6,0.8-0.8,1.5L36.2,5.6z M36.2,7.6L37,8c-0.2,0.5-0.5,0.9-0.9,1.2c-0.3,0.3-0.7,0.5-1.1,0.7
		c-0.4,0.2-0.9,0.2-1.4,0.2c-1.2,0-2.1-0.4-2.7-1.2c-0.7-0.8-1-1.7-1-2.6c0-0.9,0.3-1.7,0.8-2.5c0.7-0.9,1.6-1.4,2.8-1.4
		c1.2,0,2.2,0.5,2.9,1.4c0.5,0.7,0.8,1.5,0.8,2.5h-6.4c0,0.8,0.3,1.5,0.8,2.1c0.5,0.5,1.2,0.8,1.9,0.8c0.4,0,0.7-0.1,1.1-0.2
		c0.3-0.1,0.6-0.3,0.9-0.5C35.7,8.4,36,8,36.2,7.6z M38.7,2.7h1v1c0.3-0.4,0.6-0.7,0.9-0.9c0.3-0.2,0.6-0.3,1-0.3
		c0.3,0,0.5,0.1,0.8,0.2l-0.5,0.8c-0.2-0.1-0.3-0.1-0.5-0.1c-0.3,0-0.6,0.1-0.9,0.4c-0.3,0.2-0.5,0.6-0.7,1.2
		c-0.1,0.4-0.2,1.2-0.2,2.5v2.4h-1L38.7,2.7z M43.5,2.7h0.9V4c0.3-0.5,0.7-0.9,1.2-1.1c0.4-0.2,0.9-0.4,1.4-0.4c0.5,0,1,0.1,1.4,0.4
		c0.4,0.3,0.7,0.6,0.9,1.1c0.2,0.5,0.3,1.2,0.3,2.2v3.7h-0.9V6.5c0-0.8,0-1.4-0.1-1.7c-0.1-0.5-0.3-0.8-0.6-1.1
		c-0.3-0.2-0.7-0.4-1.1-0.4c-0.5,0-1,0.2-1.4,0.6c-0.4,0.4-0.7,0.8-0.8,1.4c-0.1,0.4-0.1,1-0.1,1.9v2.6h-0.9L43.5,2.7z M54.8,3.4
		c-0.5,0-1,0.1-1.4,0.4c-0.4,0.3-0.8,0.6-1,1.1C52.1,5.4,52,5.9,52,6.4c0,0.5,0.1,1,0.4,1.5c0.3,0.5,0.6,0.8,1,1.1
		c0.4,0.3,0.9,0.4,1.4,0.4c0.5,0,1-0.1,1.4-0.4c0.4-0.3,0.8-0.6,1-1c0.2-0.4,0.3-0.9,0.3-1.5c0-0.8-0.3-1.5-0.8-2.1
		C56.3,3.7,55.6,3.4,54.8,3.4L54.8,3.4z M58.4,2.7V10h-0.9V8.7c-0.4,0.5-0.8,0.8-1.3,1.1c-0.5,0.2-1,0.4-1.6,0.4
		c-1,0-1.9-0.4-2.6-1.1c-0.7-0.7-1.1-1.6-1.1-2.7c0-1,0.4-1.9,1.1-2.7c0.7-0.7,1.6-1.1,2.6-1.1c0.6,0,1.1,0.1,1.6,0.4
		c0.5,0.3,0.9,0.6,1.2,1.1V2.7L58.4,2.7z M60,3.4h0.1c0.1,0,0.1,0,0.1,0c0,0,0,0,0-0.1c0,0,0,0,0,0c0,0,0,0,0,0c0,0-0.1,0-0.1,0H60
		V3.4z M59.9,3.7V3.1h0.2c0.1,0,0.1,0,0.2,0c0,0,0.1,0,0.1,0.1c0,0,0,0.1,0,0.1c0,0,0,0.1,0,0.1c0,0-0.1,0.1-0.1,0.1c0,0,0,0,0.1,0
		c0,0,0,0.1,0.1,0.1l0.1,0.1h-0.1l0-0.1c0-0.1-0.1-0.1-0.1-0.1c0,0,0,0-0.1,0H60L59.9,3.7L59.9,3.7z M60.1,2.9c-0.1,0-0.2,0-0.2,0.1
		c-0.1,0-0.1,0.1-0.2,0.2c0,0.1-0.1,0.2-0.1,0.2c0,0.1,0,0.2,0.1,0.2c0,0.1,0.1,0.1,0.2,0.2c0.1,0,0.2,0.1,0.2,0.1
		c0.1,0,0.2,0,0.2-0.1c0.1,0,0.1-0.1,0.2-0.2c0-0.1,0.1-0.2,0.1-0.2c0-0.1,0-0.2-0.1-0.2c0-0.1-0.1-0.1-0.2-0.2
		C60.3,2.9,60.2,2.9,60.1,2.9z M60.1,2.8c0.1,0,0.2,0,0.3,0.1c0.1,0,0.2,0.1,0.2,0.2c0.1,0.1,0.1,0.2,0.1,0.3c0,0.1,0,0.2-0.1,0.3
		c-0.1,0.1-0.1,0.2-0.2,0.2C60.2,4,60,4,59.8,3.9c-0.1-0.1-0.2-0.1-0.2-0.2c0-0.1-0.1-0.2-0.1-0.3c0-0.1,0-0.2,0.1-0.3
		c0.1-0.1,0.1-0.2,0.2-0.2C59.9,2.8,60,2.8,60.1,2.8L60.1,2.8z"/>
</g>
</svg>
