<?xml version="1.0" encoding="utf-8"?>
<!-- Generator: Adobe Illustrator 25.0.0, SVG Export Plug-In . SVG Version: 6.00 Build 0)  -->
<svg version="1.1" id="Layer_1" xmlns="http://www.w3.org/2000/svg" xmlns:xlink="http://www.w3.org/1999/xlink" x="0px" y="0px"
	 viewBox="0 0 176.5 29.9" style="enable-background:new 0 0 176.5 29.9;" xml:space="preserve">
<style type="text/css">
	.st0{fill:#1B1B1B;}
	.st1{fill:#4E4E4E;}
	.st2{fill:none;}
</style>
<polygon class="st0" points="26.4,0.8 26.4,4.1 26.4,25.7 26.4,29 33.7,29 33.7,25.7 33.7,4.1 33.7,0.8 "/>
<path class="st0" d="M96.8,15c0,4.6-1.3,8.2-3.7,10.8s-6,3.9-10.4,3.9c-4.4,0-7.9-1.3-10.4-3.9s-3.7-6.2-3.7-10.8s1.3-8.3,3.7-10.9
	s6-3.9,10.5-3.9s8,1.3,10.5,3.9C95.6,6.6,96.8,10.3,96.8,15 M89.9,15c0.1-2.5-0.5-4.9-1.9-7c-1.2-1.7-3.2-2.7-5.3-2.6
	c-2.1-0.1-4.1,0.9-5.3,2.6c-1.4,2.1-2,4.5-1.9,7c-0.1,2.5,0.5,4.9,1.9,7c2.3,2.9,6.5,3.5,9.5,1.2c0.4-0.3,0.8-0.7,1.2-1.2
	C89.4,19.8,90,17.4,89.9,15"/>
<polygon class="st1" points="119.1,0.8 126.3,0.8 116.6,29 108.2,29 98.6,0.8 105.8,0.8 112.4,21.1 "/>
<path class="st0" d="M0.5,28.6V23c2.7,0.9,5.5,1.4,8.4,1.4c3.4,0,5.1-0.9,5.1-2.7c0-0.6-0.3-1.3-0.7-1.7c-1.2-0.8-2.5-1.5-3.9-2
	c-3.7-1.5-6.1-2.9-7.3-4c-3-3.2-2.8-8.2,0.4-11.2C2.7,2.6,3,2.4,3.3,2.2C5.8,0.6,8.7-0.1,11.6,0c2.8,0.1,5.6,0.4,8.4,1v5
	c-2.5-0.7-5-1.1-7.6-1.2c-3.2,0-4.8,0.9-4.8,2.6c0,0.7,0.4,1.3,1,1.6c1.4,0.8,2.9,1.5,4.4,2.2c2.5,1,4.9,2.3,7,4
	c1.4,1.4,2.1,3.3,2.1,5.2c0.1,2.9-1.5,5.6-4,7c-2.6,1.4-5.5,2.1-8.4,2c-3,0.1-6.1-0.2-9-0.9L0.5,28.6z"/>
<polygon class="st0" points="39.1,29 39.1,0.8 48.1,0.8 58.1,19.6 58.1,0.8 63.7,0.8 63.7,29 55.3,29 44.7,9.8 44.7,29 "/>
<polygon class="st1" points="131.1,29 123.9,29 133.5,0.8 141.9,0.8 151.6,29 144.3,29 137.7,8.7 "/>
<path class="st1" d="M176.2,23.5c-2.2,0.6-4.5,0.9-6.8,1c-2.6,0.1-5.1-0.8-7-2.6c-1.8-1.9-2.8-4.4-2.6-7c-0.1-2.6,0.8-5.1,2.6-7
	c1.8-1.8,4.3-2.8,6.9-2.7c2.4,0.1,4.7,0.5,7,1.3V1.4c-0.9-0.3-1.8-0.6-2.8-0.7c-1.5-0.3-3.1-0.5-4.6-0.4c-4.9,0-8.7,1.4-11.6,4.1
	c-2.9,2.7-4.3,6.3-4.3,10.9s1.4,8.1,4.3,10.7s6.8,3.9,11.8,3.9c1.5,0,2.9-0.1,4.3-0.4c1.1-0.2,2.1-0.4,3.1-0.6v-5.2h-0.3V23.5z"/>
<rect x="-5.8" y="-6.1" class="st2" width="188" height="42"/>
</svg>
