<?xml version="1.0" encoding="UTF-8"?>
<svg xmlns="http://www.w3.org/2000/svg" xmlns:xlink="http://www.w3.org/1999/xlink" width="2500pt" height="624pt" viewBox="0 0 2500 624" version="1.1">
<g id="surface1">
<path style=" stroke:none;fill-rule:nonzero;fill:rgb(48.999023%,22.399902%,56.498718%);fill-opacity:1;" d="M 846.59375 530.914063 C 851.21875 520.933594 851.578125 516.699219 851.578125 490.148438 C 839.714844 492.078125 823.648438 494.398438 803.976563 498.617188 C 770.238281 505.90625 764.476563 518.582031 764.476563 531.304688 C 764.476563 545.910156 775.996094 558.210938 798.621094 558.210938 C 819.734375 558.226563 837.78125 549.773438 846.59375 530.914063 M 888.300781 581.046875 L 856.574219 581.175781 C 856.574219 581.175781 853.832031 568.371094 852.957031 554.382813 C 843.722656 563.941406 826.632813 583.738281 792.097656 583.738281 C 756.75 583.738281 730.558594 562.789063 730.558594 532.082031 C 730.558594 522.460938 733.25 512.867188 738.65625 504.785156 C 749.042969 489.398438 768.304688 477.113281 822.429688 472.863281 L 851.21875 470.558594 L 851.21875 465.964844 C 851.21875 447.125 851.21875 415.625 810.628906 415.625 C 785.117188 415.625 776.453125 427.988281 773.5 439.1875 L 745.390625 427.421875 C 745.84375 426.464844 746.347656 425.457031 746.882813 424.449219 C 757.675781 404.472656 778.855469 392.171875 809.480469 392.171875 C 826.308594 392.171875 848.136719 396.40625 862.367188 407.542969 C 882.605469 422.894531 882.121094 453.128906 882.121094 453.128906 L 883.355469 546.347656 C 883.355469 546.382813 884.40625 573.449219 888.300781 581.046875 M 1902.640625 530.914063 C 1907.230469 520.933594 1907.636719 516.699219 1907.636719 490.148438 C 1895.789063 492.078125 1879.691406 494.398438 1860.023438 498.617188 C 1826.265625 505.90625 1820.503906 518.582031 1820.503906 531.304688 C 1820.503906 545.910156 1832.027344 558.210938 1854.664063 558.210938 C 1875.78125 558.226563 1893.8125 549.773438 1902.640625 530.914063 M 1944.347656 581.046875 L 1912.621094 581.175781 C 1912.605469 581.175781 1909.863281 568.371094 1908.96875 554.382813 C 1899.75 563.941406 1882.695313 583.738281 1848.140625 583.738281 C 1812.792969 583.738281 1786.585938 562.789063 1786.585938 532.082031 C 1786.585938 522.460938 1789.277344 512.867188 1794.667969 504.785156 C 1805.070313 489.398438 1824.332031 477.113281 1878.441406 472.863281 L 1907.214844 470.558594 L 1907.214844 465.964844 C 1907.214844 447.125 1907.214844 415.625 1866.660156 415.625 C 1841.148438 415.625 1832.480469 427.988281 1829.511719 439.1875 L 1801.417969 427.421875 C 1801.894531 426.417969 1802.394531 425.425781 1802.925781 424.449219 C 1813.738281 404.472656 1834.898438 392.171875 1865.492188 392.171875 C 1882.335938 392.171875 1904.179688 396.40625 1918.398438 407.542969 C 1938.632813 422.894531 1938.164063 453.128906 1938.164063 453.128906 L 1939.382813 546.347656 C 1939.382813 546.382813 1940.453125 573.449219 1944.347656 581.046875 M 1597.675781 546.332031 C 1587.289063 564.039063 1567.214844 584.339844 1527.664063 584.339844 C 1473.996094 584.339844 1443.128906 547.855469 1443.128906 486.722656 C 1443.128906 418.414063 1488.164063 392.335938 1526.496094 392.335938 C 1559.847656 392.335938 1591.820313 410.738281 1602.546875 456.40625 C 1606.035156 471.742188 1606.035156 485.570313 1606.035156 493.261719 L 1475.441406 493.261719 C 1474.660156 523.660156 1487.417969 562.058594 1530.359375 561.34375 C 1547.871094 561.035156 1560.203125 553.066406 1568.089844 540.617188 Z M 1476.171875 471.339844 L 1572.554688 471.339844 C 1569.863281 423.769531 1542.484375 415.734375 1524.175781 415.734375 C 1498.113281 415.734375 1479.625 434.886719 1476.171875 471.339844 M 1250.84375 546.332031 C 1240.441406 564.039063 1220.382813 584.339844 1180.800781 584.339844 C 1127.128906 584.339844 1096.261719 547.855469 1096.261719 486.722656 C 1096.261719 418.414063 1141.316406 392.335938 1179.664063 392.335938 C 1213.015625 392.335938 1244.9375 410.738281 1255.730469 456.40625 C 1259.1875 471.742188 1259.1875 485.570313 1259.1875 493.261719 L 1128.589844 493.261719 C 1127.8125 523.660156 1140.570313 562.058594 1183.511719 561.34375 C 1201.023438 561.035156 1213.371094 553.066406 1221.242188 540.617188 Z M 1129.320313 471.339844 L 1225.738281 471.339844 C 1223.042969 423.769531 1195.632813 415.734375 1177.34375 415.734375 C 1151.265625 415.734375 1132.777344 434.886719 1129.320313 471.339844 M 1777.625 548.636719 C 1766.214844 566.554688 1745.507813 584.535156 1708.3125 584.535156 C 1644.0625 584.535156 1619.78125 535.019531 1619.78125 490.554688 C 1619.78125 439.171875 1647.761719 392.578125 1705.648438 392.578125 C 1728.335938 392.578125 1760.128906 399.425781 1777.691406 428.734375 L 1749.128906 440.648438 C 1743.707031 428.753906 1732.085938 414.988281 1706.753906 414.988281 C 1656.636719 414.988281 1653.699219 472.132813 1653.699219 488.25 C 1653.699219 548.167969 1688.105469 561.117188 1708.683594 561.117188 C 1732.234375 561.117188 1744.210938 549.820313 1750.574219 537.375 Z M 1307.207031 400.285156 L 1307.207031 426.707031 C 1324.183594 397.042969 1353.121094 394.347656 1363.898438 394.347656 C 1387.039063 394.347656 1414.777344 405.933594 1423.652344 435.925781 C 1426.71875 446.667969 1426.71875 457.785156 1426.71875 473.105469 L 1426.71875 580.867188 L 1396.308594 580.867188 L 1396.308594 478.089844 C 1396.308594 459.667969 1396.308594 454.3125 1394.375 448.179688 C 1388.988281 430.925781 1371.996094 423.265625 1355.425781 423.265625 C 1341.941406 423.265625 1330.367188 427.472656 1320.726563 437.0625 C 1307.207031 450.5 1307.207031 464.292969 1307.207031 477.765625 L 1307.207031 580.882813 L 1276.714844 580.882813 L 1276.714844 400.285156 Z M 1082.09375 341.796875 L 1082.09375 371.625 L 946.792969 552.175781 L 1085.488281 552.175781 L 1085.488281 580.867188 L 909.839844 580.867188 L 909.839844 549.804688 L 1045.824219 371.253906 L 909.9375 371.253906 L 909.9375 341.796875 Z M 667.199219 399.019531 L 667.199219 431.574219 C 684.480469 397.253906 717.117188 396.457031 729.4375 396.066406 L 729.4375 427.566406 C 699.476563 427.761719 684.789063 433.914063 674.890625 450.046875 C 666.777344 463.191406 667.199219 481.660156 667.199219 497.289063 L 667.199219 580.851563 L 636.6875 580.851563 L 636.6875 399.019531 Z M 576.136719 398.566406 L 609.164063 398.566406 L 609.164063 423.980469 L 576.136719 423.980469 L 576.136719 527.410156 C 576.136719 548.863281 576.136719 558.097656 589.183594 558.097656 C 594.945313 558.097656 603.027344 555.777344 609.164063 553.847656 L 609.164063 579.019531 C 603.773438 579.78125 591.117188 582.085938 579.59375 582.085938 C 544.246094 582.085938 544.246094 564.929688 544.621094 541.21875 L 544.621094 423.964844 L 515.828125 423.964844 L 515.828125 398.550781 L 544.621094 398.550781 L 544.621094 355.121094 L 576.136719 341.992188 Z M 424.523438 498.292969 C 393.445313 491.558594 361.34375 484.222656 361.34375 446.71875 C 361.34375 413.804688 389.195313 393.046875 431.242188 393.046875 C 458.425781 393.046875 484.425781 403.175781 497.375 427.925781 L 469.089844 439.722656 C 466.832031 433.148438 452.210938 416.484375 427.769531 416.484375 C 403.832031 416.484375 391.855469 430.636719 391.855469 442.886719 C 391.855469 460.125 414.609375 467.28125 434.019531 471.175781 C 474.21875 479.257813 509.144531 489.5625 509.144531 527.441406 C 509.144531 556.898438 482.996094 584.535156 433.042969 584.535156 C 396.269531 584.535156 370.140625 572.21875 357.5625 546.558594 L 389.828125 540.910156 C 397.925781 555 412.5625 561.101563 434.375 561.101563 C 461.378906 561.101563 477.238281 550.796875 477.238281 531.269531 C 477.238281 510.597656 451.253906 504.105469 424.523438 498.292969 M 318.042969 580.867188 L 351.605469 580.867188 L 264.570313 341.75 L 231.398438 341.75 L 140.289063 580.867188 L 174.140625 580.867188 L 200.902344 507.578125 L 291.996094 507.578125 Z M 211.0625 480.75 L 247.644531 381.429688 L 282.503906 480.75 Z M 211.0625 480.75 "/>
<path style=" stroke:none;fill-rule:nonzero;fill:rgb(93.299866%,74.099731%,19.198608%);fill-opacity:1;" d="M 1956.632813 340.042969 L 2022.523438 374.433594 L 2088.105469 410.136719 L 2136.921875 437.550781 C 2084.921875 466.355469 1960.480469 580.65625 2093.945313 589.160156 C 2131.128906 587.488281 2270.503906 560.695313 2292.363281 533.753906 C 2296.128906 528.367188 2296.390625 522.621094 2293.113281 516.84375 L 2289.832031 512.332031 L 2286.035156 508.601563 L 2282.433594 505.773438 L 2252.621094 487.613281 L 2215.957031 465.949219 C 2375.667969 363.835938 2437.792969 302.667969 2214.464844 239.132813 C 2210.472656 202.0625 2229.007813 -22.027344 2126.308594 48.472656 C 2061.617188 102.480469 1966.9375 217.058594 1929.011719 290.105469 C 1914.792969 319.042969 1931.28125 324.511719 1953.921875 338.617188 L 1953.730469 338.535156 L 1953.988281 338.648438 Z M 1956.632813 340.042969 "/>
<path style=" stroke:none;fill-rule:nonzero;fill:rgb(100%,100%,100%);fill-opacity:1;" d="M 1969.128906 296.582031 C 1965.816406 300.101563 1958.96875 307.632813 1960.820313 313.203125 L 1963.238281 317.453125 L 1965.445313 319.59375 L 1980.539063 330.4375 L 2040.40625 366.238281 L 2149.550781 428.65625 L 2223.457031 381.054688 L 2243.5625 367.359375 L 2258.820313 355.949219 L 2270.652344 345.5625 L 2273.863281 341.308594 L 2274.65625 339.3125 L 2274.820313 336.878906 L 2274.1875 334.507813 L 2271.363281 330.226563 L 2264.953125 324.902344 L 2239.375 310.050781 L 2211.996094 297.265625 C 2201.578125 516.601563 2074.214844 319.253906 2034.46875 229.960938 Z M 2057.789063 204.757813 L 2071.292969 205.652344 L 2113.359375 212.566406 L 2158.394531 222.96875 C 2147.4375 76.839844 2150.425781 114.296875 2057.789063 204.757813 M 2201.480469 475.507813 L 2159.414063 504.070313 L 2130.609375 525.558594 L 2124.847656 530.847656 L 2260.183594 520.25 L 2260.667969 519.960938 L 2260.910156 519.570313 L 2261.011719 519.246094 L 2261.011719 518.921875 L 2260.945313 518.644531 L 2258.007813 515.007813 L 2253.902344 511.015625 L 2243.871094 503.066406 L 2229.136719 493.085938 Z M 2201.480469 475.507813 "/>
<path style=" stroke:none;fill-rule:nonzero;fill:rgb(100%,100%,100%);fill-opacity:1;" d="M 2057.789063 236.648438 C 2066.066406 268.75 2120.320313 353.96875 2148.183594 368.28125 L 2154.367188 370.199219 L 2158.101563 370.132813 L 2161.882813 368.460938 L 2163.570313 366.707031 L 2165.082031 363.414063 L 2165.597656 361.027344 L 2166.054688 354.179688 L 2164.886719 319.320313 L 2161.898438 274.835938 L 2064.476563 233.109375 L 2058.828125 231.097656 L 2058.261719 231.050781 L 2057.917969 231.066406 L 2057.691406 231.210938 L 2057.527344 231.4375 L 2057.316406 232.136719 Z M 2057.789063 236.648438 "/>
</g>
</svg>
